<svg width="235" height="138" viewBox="0 0 235 138" fill="none" xmlns="http://www.w3.org/2000/svg">
<g clip-path="url(#clip0_171_877)">
<path d="M194.555 87.3173C194.759 86.9673 194.868 86.5846 194.873 86.1963C194.879 85.808 194.781 85.4234 194.586 85.0697C194.391 84.716 194.104 84.4017 193.745 84.149C193.387 83.8963 192.965 83.7113 192.51 83.6071L191.795 74.1855L187.028 77.1359L188.438 85.6304C188.276 86.2705 188.405 86.9373 188.8 87.5044C189.196 88.0715 189.831 88.4996 190.585 88.7075C191.339 88.9155 192.159 88.8888 192.891 88.6325C193.623 88.3763 194.215 87.9083 194.555 87.3173Z" fill="#FFB8B8"/>
<path d="M215.333 124.352L219.119 125.244L225.109 113.661L219.521 112.344L215.333 124.352Z" fill="#FFB8B8"/>
<path d="M225.414 129.856L213.514 127.051L214.832 123.271L222.135 124.992C223.354 125.28 224.385 125.954 225 126.866C225.615 127.778 225.764 128.854 225.414 129.856Z" fill="#2F2E41"/>
<path d="M209.266 134.993L205.327 134.992L203.453 122.5L209.267 122.501L209.266 134.993Z" fill="#FFB8B8"/>
<path d="M202.514 134.067H210.11V138H197.73C197.73 137.484 197.854 136.972 198.095 136.495C198.335 136.018 198.687 135.584 199.131 135.219C199.576 134.854 200.103 134.564 200.683 134.367C201.263 134.169 201.885 134.067 202.514 134.067Z" fill="#2F2E41"/>
<path d="M198.372 84.062C198.372 84.062 196.123 91.4586 199.978 106.516L202.87 132.404L210.26 132.668L209.296 104.667L211.866 93.0436L218.292 109.158L216.043 120.517L221.505 122.63L227.61 107.044C227.61 107.044 226.967 85.3829 224.397 82.7412L198.372 84.062Z" fill="#2F2E41"/>
<path d="M207.704 41.9284C212.062 41.9284 215.595 39.0236 215.595 35.4403C215.595 31.857 212.062 28.9521 207.704 28.9521C203.346 28.9521 199.812 31.857 199.812 35.4403C199.812 39.0236 203.346 41.9284 207.704 41.9284Z" fill="#FFB8B8"/>
<path d="M203.513 45.2935C203.513 45.2935 203.031 46.1648 208.814 45.6265C214.598 45.0882 215.883 43.5132 215.883 43.5132L226.004 80.015L225.361 83.2449L197.729 84.5907V80.015L202.549 55.7907L203.513 45.2935Z" fill="#E6E6E6"/>
<path d="M205.879 83.6678L197.12 83.5319L197.091 83.4315C195.961 78.4263 196.07 73.285 197.413 68.3153C199.182 61.8745 195.162 53.1396 193.352 49.683C193.138 49.2718 193.113 48.8112 193.28 48.3859C193.447 47.9607 193.796 47.5993 194.261 47.3684L200.461 44.3099C200.883 44.1018 201.358 43.9776 201.849 43.9472C202.34 43.9169 202.832 43.9813 203.287 44.1353C203.742 44.2892 204.147 44.5285 204.47 44.8339C204.792 45.1394 205.024 45.5026 205.145 45.8946L206.229 49.3912C211.222 53.8054 210.872 62.8592 209.697 69.6839C208.856 74.3846 207.592 79.0275 205.915 83.5742L205.879 83.6678Z" fill="#2F2E41"/>
<path d="M195.963 46.6831L195.205 47.1093C193.493 48.066 192.208 49.4555 191.544 51.0671C191.158 52.0068 190.863 52.9699 190.661 53.9476C190.019 57.1176 187.127 70.59 187.127 70.59L185.842 83.7982L192.91 82.4774L196.123 67.1559L199.336 57.6459L195.963 46.6831Z" fill="#2F2E41"/>
<path d="M221.1 83.7308L221.033 83.5789C220.574 82.5318 209.851 57.8664 214.915 49.1689L214.419 45.0898C214.366 44.6529 214.446 44.2119 214.651 43.8065C214.856 43.4011 215.181 43.0441 215.596 42.7673C216.01 42.4906 216.502 42.303 217.027 42.2212C217.552 42.1394 218.093 42.1661 218.602 42.2988L226.351 44.3188C226.671 44.4008 226.95 44.5657 227.147 44.7888C227.343 45.0119 227.447 45.2813 227.442 45.5568C227.41 47.9015 227.252 53.8774 226.484 58.7196C225.535 64.7058 228.7 79.6626 228.732 79.813L228.751 79.9017L221.1 83.7308Z" fill="#2F2E41"/>
<path d="M217.685 77.1726C217.694 76.7843 217.806 76.4024 218.014 76.0537C218.223 75.7051 218.521 75.3982 218.889 75.1547C219.257 74.9112 219.685 74.737 220.144 74.6443C220.603 74.5517 221.081 74.5428 221.544 74.6184L227.347 66.4731L229.985 70.8732L224.069 77.9335C223.863 78.565 223.383 79.1125 222.719 79.4721C222.054 79.8317 221.253 79.9785 220.466 79.8847C219.679 79.7909 218.961 79.463 218.449 78.9631C217.936 78.4633 217.664 77.8262 217.685 77.1726Z" fill="#FFB8B8"/>
<path d="M225.201 44.3057L225.616 44.3845C226.13 44.482 226.607 44.6831 227.002 44.9697C227.398 45.2562 227.701 45.6193 227.884 46.0261L235 61.8726L226.647 76.93L223.594 70.7221L227.45 63.8538L220.542 56.5893L225.201 44.3057Z" fill="#2F2E41"/>
<path d="M215.702 36.3372C216.156 35.3753 216.495 34.3797 216.716 33.3642C216.935 32.3429 216.788 31.2913 216.295 30.3369C215.764 29.5023 215.023 28.7709 214.119 28.1922C213.5 27.7592 212.85 27.3568 212.172 26.9874C210.263 25.9464 209.847 26.8937 207.557 26.6806C205.267 26.4675 202.701 25.926 200.865 27.0498C199.678 27.7912 198.787 28.8068 198.306 29.9669C197.824 31.127 197.775 32.3788 198.163 33.5621C198.675 34.9937 198.268 35.4656 199.848 36.2394C199.847 34.951 200.443 33.7106 201.515 32.7707C202.61 31.8275 204.091 31.2515 205.672 31.154C206.89 31.0814 208.103 31.295 209.295 31.5074C210.452 31.7134 211.64 31.9299 212.621 32.4657C214.246 33.3535 215.008 34.9391 215.678 36.4264" fill="#2F2E41"/>
<path d="M140.085 61.5503H0V62.0786H140.085V61.5503Z" fill="#E6E6E6"/>
<path d="M140.085 40.9453H0V41.4736H140.085V40.9453Z" fill="#E6E6E6"/>
<path d="M140.085 20.3408H0V20.8691H140.085V20.3408Z" fill="#E6E6E6"/>
<path d="M112.39 0H111.747V82.4193H112.39V0Z" fill="#E6E6E6"/>
<path d="M84.3721 0H83.7295V82.4193H84.3721V0Z" fill="#E6E6E6"/>
<path d="M56.3555 0H55.7129V82.4193H56.3555V0Z" fill="#E6E6E6"/>
<path d="M28.3379 0H27.6953V82.4193H28.3379V0Z" fill="#E6E6E6"/>
<path d="M84.1799 20.605H27.9531V41.2098H84.1799V20.605Z" fill="#26AD71"/>
<path d="M27.9531 39.6245V61.8143L57.191 40.417L27.9531 39.6245Z" fill="#26AD71"/>
<path d="M84.1793 40.417V41.2095L83.813 41.4763L83.0741 42.0152C68.7025 42.3718 57.0941 50.8356 56.5703 61.3309L55.9117 61.8117L55.9053 61.8143V39.6245L84.1793 40.417Z" fill="#26AD71"/>
<path d="M84.0186 41.4736C83.9512 41.4736 83.8804 41.4736 83.813 41.4763C68.5258 41.5555 56.1012 50.6216 55.9117 61.8116C55.9053 61.9015 55.9053 61.9886 55.9053 62.0785C55.9053 73.4402 68.5161 82.6833 84.0186 82.6833C99.5212 82.6833 112.132 73.4402 112.132 62.0785C112.132 50.7167 99.5212 41.4736 84.0186 41.4736ZM84.0186 82.1549C68.8727 82.1549 56.5479 73.1496 56.5479 62.0785C56.5479 61.8275 56.5543 61.5792 56.5703 61.3309C57.0941 50.8356 68.7025 42.3718 83.074 42.0152C83.3858 42.0046 83.7005 42.002 84.0186 42.002C99.1646 42.002 111.489 51.0073 111.489 62.0785C111.489 73.1496 99.1646 82.1549 84.0186 82.1549Z" fill="#E6E6E6"/>
<path d="M68.5967 61.8187L66.9902 61.8114C66.9909 61.6939 67.2482 50.0612 83.6819 49.2544L83.7776 50.5729C68.8733 51.3046 68.601 61.3898 68.5967 61.8187Z" fill="#E6E6E6"/>
<path d="M100.237 61.5501C100.175 60.0444 99.7459 58.5644 98.9743 57.198C98.2026 55.8315 97.1047 54.6066 95.7457 53.5961C92.5508 51.2008 88.3742 49.8848 84.0506 49.911H84.0184C75.1925 49.911 67.9889 55.1071 67.7994 61.5501C67.793 61.6373 67.793 61.7271 67.793 61.8143C67.793 65.185 69.7112 68.2308 72.789 70.397C75.9318 72.5679 79.9138 73.7454 84.0184 73.7175H84.0506C92.9825 73.7043 100.244 68.3708 100.244 61.8143C100.244 61.7271 100.244 61.6373 100.237 61.5501Z" fill="#E6E6E6"/>
<path d="M95.7457 53.5961L95.2638 53.9475L73.271 70.0456L72.7891 70.397C69.7112 68.2308 67.793 65.185 67.793 61.8143C67.793 61.7271 67.793 61.6373 67.7994 61.5501C67.9889 55.1071 75.1925 49.911 84.0184 49.911H84.0506C88.3742 49.8848 92.5508 51.2008 95.7457 53.5961Z" fill="#26AD71"/>
</g>
<defs>
<clipPath id="clip0_171_877">
<rect width="235" height="138" fill="white"/>
</clipPath>
</defs>
</svg>

