<svg width="275" height="182" viewBox="0 0 275 182" fill="none" xmlns="http://www.w3.org/2000/svg">
<g clip-path="url(#clip0_169_778)">
<path d="M27.7577 166.612C28.8994 167.041 30.1252 167.148 31.317 166.924C32.5088 166.699 33.6264 166.15 34.5622 165.329C36.9455 163.189 37.6929 159.664 38.3007 156.399L40.099 146.742L36.3341 149.516C33.6264 151.511 30.8579 153.569 28.9833 156.458C27.1086 159.347 26.2908 163.291 27.7966 166.418" fill="#E6E6E6"/>
<path d="M28.3386 178.975C27.8648 175.282 27.3772 171.54 27.7104 167.807C28.0057 164.491 28.9512 161.253 30.876 158.597C31.8978 157.191 33.141 155.985 34.5499 155.036C34.9172 154.788 35.2553 155.41 34.8896 155.657C32.4518 157.306 30.5662 159.74 29.5047 162.608C28.3323 165.798 28.1441 169.276 28.346 172.665C28.4681 174.714 28.7275 176.75 28.988 178.783C29.0085 178.875 28.9957 178.972 28.952 179.054C28.9084 179.137 28.8372 179.198 28.7528 179.226C28.6668 179.251 28.575 179.239 28.4975 179.192C28.42 179.144 28.363 179.067 28.3389 178.975L28.3386 178.975Z" fill="#F2F2F2"/>
<path d="M31.75 173.048C32.2396 173.845 32.9126 174.493 33.7042 174.93C34.4958 175.367 35.3794 175.579 36.2697 175.545C38.5583 175.429 40.4655 173.72 42.1821 172.098L47.2608 167.301L43.8997 167.129C41.4825 167.005 39.003 166.888 36.7007 167.687C34.3985 168.485 32.2753 170.404 31.8543 172.953" fill="#E6E6E6"/>
<path d="M26.9993 181.098C29.2807 176.78 31.9267 171.98 36.6551 170.446C37.9697 170.021 39.3482 169.868 40.7162 169.997C41.1475 170.037 41.0398 170.748 40.6094 170.708C38.3162 170.505 36.0274 171.152 34.1283 172.543C32.3008 173.874 30.8778 175.724 29.6736 177.686C28.9359 178.888 28.2751 180.141 27.6144 181.392C27.4032 181.792 26.7858 181.503 26.9993 181.098Z" fill="#F2F2F2"/>
<path d="M256.335 171.753C255.671 172.389 254.866 172.832 253.996 173.038C253.126 173.244 252.221 173.207 251.369 172.931C249.184 172.193 247.748 170.02 246.476 167.982L242.712 161.955L246.002 162.708C248.369 163.249 250.794 163.815 252.829 165.216C254.864 166.618 256.458 169.053 256.256 171.633" fill="#E6E6E6"/>
<path d="M259.003 180.835C257.829 176.036 256.418 170.672 252.213 167.896C251.043 167.125 249.747 166.601 248.394 166.352C247.967 166.272 247.902 166.989 248.327 167.068C250.593 167.499 252.651 168.751 254.155 170.614C255.604 172.401 256.537 174.579 257.233 176.805C257.659 178.168 257.999 179.56 258.339 180.951C258.447 181.395 259.113 181.285 259.003 180.835Z" fill="#F2F2F2"/>
<path d="M212.771 110.556H135.851C135.237 110.555 134.648 110.294 134.214 109.829C133.779 109.364 133.535 108.734 133.534 108.077V80.3147C133.535 79.6575 133.779 79.0275 134.214 78.5628C134.648 78.0981 135.237 77.8367 135.851 77.8359H212.771C213.385 77.8367 213.974 78.0981 214.408 78.5628C214.843 79.0275 215.087 79.6575 215.088 80.3147V108.077C215.087 108.734 214.843 109.364 214.408 109.829C213.974 110.294 213.385 110.555 212.771 110.556Z" fill="#F1F1F1"/>
<path d="M165.97 85.2725H145.582V87.7512H165.97V85.2725Z" fill="#26AD71"/>
<path d="M192.846 88.247C193.614 88.247 194.236 87.5811 194.236 86.7597C194.236 85.9383 193.614 85.2725 192.846 85.2725C192.078 85.2725 191.456 85.9383 191.456 86.7597C191.456 87.5811 192.078 88.247 192.846 88.247Z" fill="#26AD71"/>
<path d="M197.48 88.247C198.248 88.247 198.87 87.5811 198.87 86.7597C198.87 85.9383 198.248 85.2725 197.48 85.2725C196.712 85.2725 196.09 85.9383 196.09 86.7597C196.09 87.5811 196.712 88.247 197.48 88.247Z" fill="#26AD71"/>
<path d="M202.114 88.247C202.881 88.247 203.504 87.5811 203.504 86.7597C203.504 85.9383 202.881 85.2725 202.114 85.2725C201.346 85.2725 200.724 85.9383 200.724 86.7597C200.724 87.5811 201.346 88.247 202.114 88.247Z" fill="#26AD71"/>
<path d="M212.771 145.755H135.851C135.237 145.754 134.648 145.492 134.214 145.028C133.779 144.563 133.535 143.933 133.534 143.276V115.513C133.535 114.856 133.779 114.226 134.214 113.762C134.648 113.297 135.237 113.035 135.851 113.035H212.771C213.385 113.035 213.974 113.297 214.408 113.762C214.843 114.226 215.087 114.856 215.088 115.513V143.276C215.087 143.933 214.843 144.563 214.408 145.028C213.974 145.493 213.385 145.754 212.771 145.755Z" fill="#F1F1F1"/>
<path d="M165.97 120.471H145.582V122.95H165.97V120.471Z" fill="#26AD71"/>
<path d="M192.846 123.446C193.614 123.446 194.236 122.78 194.236 121.958C194.236 121.137 193.614 120.471 192.846 120.471C192.078 120.471 191.456 121.137 191.456 121.958C191.456 122.78 192.078 123.446 192.846 123.446Z" fill="#26AD71"/>
<path d="M197.48 123.446C198.248 123.446 198.87 122.78 198.87 121.958C198.87 121.137 198.248 120.471 197.48 120.471C196.712 120.471 196.09 121.137 196.09 121.958C196.09 122.78 196.712 123.446 197.48 123.446Z" fill="#26AD71"/>
<path d="M202.114 123.446C202.881 123.446 203.504 122.78 203.504 121.958C203.504 121.137 202.881 120.471 202.114 120.471C201.346 120.471 200.724 121.137 200.724 121.958C200.724 122.78 201.346 123.446 202.114 123.446Z" fill="#26AD71"/>
<path d="M212.771 180.954H135.851C135.237 180.953 134.648 180.691 134.214 180.227C133.779 179.762 133.535 179.132 133.534 178.475V150.712C133.535 150.055 133.779 149.425 134.214 148.96C134.648 148.496 135.237 148.234 135.851 148.234H212.771C213.385 148.234 213.974 148.496 214.408 148.96C214.843 149.425 215.087 150.055 215.088 150.712V178.475C215.087 179.132 214.843 179.762 214.408 180.227C213.974 180.691 213.385 180.953 212.771 180.954Z" fill="#F1F1F1"/>
<path d="M165.97 155.67H145.582V158.149H165.97V155.67Z" fill="#26AD71"/>
<path d="M192.846 158.644C193.614 158.644 194.236 157.979 194.236 157.157C194.236 156.336 193.614 155.67 192.846 155.67C192.078 155.67 191.456 156.336 191.456 157.157C191.456 157.979 192.078 158.644 192.846 158.644Z" fill="#26AD71"/>
<path d="M197.48 158.644C198.248 158.644 198.87 157.979 198.87 157.157C198.87 156.336 198.248 155.67 197.48 155.67C196.712 155.67 196.09 156.336 196.09 157.157C196.09 157.979 196.712 158.644 197.48 158.644Z" fill="#26AD71"/>
<path d="M202.114 158.644C202.881 158.644 203.504 157.979 203.504 157.157C203.504 156.336 202.881 155.67 202.114 155.67C201.346 155.67 200.724 156.336 200.724 157.157C200.724 157.979 201.346 158.644 202.114 158.644Z" fill="#26AD71"/>
<path d="M183.773 50.7262L183.688 50.6589L183.686 50.6573C183.576 50.5701 183.452 50.5069 183.319 50.4713C183.187 50.4357 183.049 50.4283 182.914 50.4497C182.778 50.4711 182.648 50.5207 182.531 50.5958C182.414 50.6709 182.312 50.7699 182.23 50.8873L164.917 75.8278H163.012V75.349C163.012 75.2309 162.968 75.1176 162.89 75.0341C162.812 74.9505 162.706 74.9036 162.595 74.9036H161.459C161.349 74.9036 161.243 74.9505 161.165 75.0341C161.087 75.1176 161.043 75.2309 161.043 75.349V75.8278H160.385V75.349C160.385 75.2309 160.341 75.1176 160.263 75.0341C160.185 74.9505 160.079 74.9036 159.969 74.9036H158.832C158.722 74.9036 158.616 74.9505 158.538 75.0341C158.46 75.1176 158.416 75.2309 158.416 75.349V75.8278H157.76V75.349C157.76 75.2309 157.716 75.1176 157.638 75.0341C157.56 74.9505 157.454 74.9036 157.344 74.9036H156.207C156.097 74.9036 155.991 74.9505 155.913 75.0341C155.835 75.1176 155.791 75.2309 155.791 75.349V75.8278H155.133V75.349C155.133 75.2309 155.09 75.1176 155.011 75.0341C154.933 74.9505 154.828 74.9036 154.717 74.9036H153.581C153.47 74.9036 153.364 74.9505 153.286 75.0341C153.208 75.1176 153.164 75.2309 153.164 75.349V75.8278H152.509V75.349C152.509 75.2309 152.465 75.1176 152.387 75.0341C152.309 74.9505 152.203 74.9036 152.092 74.9036H150.956C150.901 74.9036 150.847 74.9151 150.797 74.9375C150.746 74.9599 150.7 74.9927 150.662 75.034C150.623 75.0754 150.592 75.1245 150.571 75.1785C150.55 75.2326 150.54 75.2905 150.54 75.349V75.8278H149.882V75.349C149.882 75.2309 149.838 75.1176 149.76 75.0341C149.682 74.9505 149.576 74.9036 149.466 74.9036H148.329C148.219 74.9036 148.113 74.9505 148.035 75.0341C147.957 75.1176 147.913 75.2309 147.913 75.349V75.8278H147.255V75.349C147.255 75.2309 147.211 75.1176 147.133 75.0341C147.055 74.9505 146.949 74.9036 146.839 74.9036H145.702C145.592 74.9036 145.486 74.9505 145.408 75.0341C145.33 75.1176 145.286 75.2309 145.286 75.349V75.8278H144.63V75.349C144.63 75.2309 144.587 75.1176 144.509 75.0341C144.43 74.9505 144.325 74.9036 144.214 74.9036H143.078C142.967 74.9036 142.861 74.9505 142.783 75.0341C142.705 75.1176 142.661 75.2309 142.661 75.349V75.8278H142.004V75.349C142.004 75.2309 141.96 75.1176 141.882 75.0341C141.804 74.9505 141.698 74.9036 141.587 74.9036H140.451C140.34 74.9036 140.235 74.9505 140.156 75.0341C140.078 75.1176 140.035 75.2309 140.035 75.349V75.8278H139.379V75.349C139.379 75.2309 139.335 75.1176 139.257 75.0341C139.179 74.9505 139.073 74.9036 138.963 74.9036H137.826C137.716 74.9036 137.61 74.9505 137.532 75.0341C137.454 75.1176 137.41 75.2309 137.41 75.349V75.8278H136.586C136.449 75.8278 136.314 75.8566 136.187 75.9125C136.061 75.9685 135.946 76.0505 135.85 76.1539C135.753 76.2573 135.676 76.3801 135.624 76.5151C135.572 76.6502 135.545 76.795 135.545 76.9413V78.0035C135.545 78.1497 135.572 78.2945 135.624 78.4296C135.676 78.5647 135.753 78.6874 135.85 78.7908C135.946 78.8942 136.061 78.9763 136.187 79.0322C136.314 79.0882 136.449 79.117 136.586 79.117H164.744C165.1 79.1169 165.446 78.9854 165.723 78.7445C165.999 78.5036 166.19 78.1681 166.262 77.7945L166.273 77.8031L183.987 52.2862L183.988 52.284C184.153 52.0469 184.223 51.7496 184.182 51.4574C184.142 51.1653 183.995 50.9023 183.773 50.7262Z" fill="#3F3D56"/>
<path d="M74.3525 171.496L77.8501 173.411L86.4182 159.889L81.2563 157.062L74.3525 171.496Z" fill="#FFB7B7"/>
<path d="M74.045 169.786L80.933 173.557L80.9333 173.557C82.0974 174.195 82.9771 175.301 83.379 176.632C83.7809 177.964 83.672 179.412 83.0763 180.657L83.0033 180.81L71.7256 174.635L74.045 169.786Z" fill="#2F2E41"/>
<path d="M114.749 176.735H118.678L120.547 160.521H114.748L114.749 176.735Z" fill="#FFB7B7"/>
<path d="M113.746 175.363L121.484 175.362H121.484C122.792 175.362 124.046 175.918 124.971 176.908C125.895 177.897 126.415 179.239 126.415 180.638V180.809L113.746 180.81L113.746 175.363Z" fill="#2F2E41"/>
<path d="M96.3697 44.4825C96.3697 44.4825 93.7387 42.3259 93.7387 47.5937L93.3232 65.0018L97.9622 81.4469L100.662 76.1133L99.5547 64.5573L96.3697 44.4825Z" fill="#2F2E41"/>
<path d="M124.514 92.0966C124.514 92.0966 127.565 107.993 123.701 121.039L121.565 171.199L113.734 170.546L110.989 133.334L108.344 114.837L102.853 131.702L84.7504 167.391L76.4111 160.427C76.4111 160.427 85.6524 133.449 92.4795 127.785L95.9035 86.0615L124.514 92.0966Z" fill="#2F2E41"/>
<path d="M123.067 18.2581C125.432 13.6288 123.842 7.82446 119.515 5.29383C115.188 2.76321 109.763 4.46457 107.398 9.09391C105.033 13.7233 106.623 19.5275 110.95 22.0582C115.277 24.5888 120.702 22.8874 123.067 18.2581Z" fill="#FFB7B7"/>
<path d="M114.6 15.7022C115.671 15.8512 116.478 14.6796 116.853 13.5965C117.227 12.5134 117.512 11.2525 118.443 10.6675C119.714 9.86817 121.341 10.8295 122.795 10.5658C124.437 10.268 125.504 8.4063 125.588 6.62684C125.672 4.84739 125.01 3.13593 124.36 1.49529L124.134 3.53424C124.164 2.84319 124.028 2.15537 123.739 1.53659C123.45 0.917799 123.017 0.388734 122.482 0L122.774 2.99183C122.712 2.57906 122.574 2.1835 122.369 1.82784C122.163 1.47218 121.894 1.16342 121.577 0.919295C121.26 0.675167 120.901 0.50047 120.52 0.405233C120.14 0.309995 119.745 0.296092 119.36 0.364319L119.406 2.14697C117.509 1.90571 115.597 1.66411 113.695 1.84791C111.793 2.03171 109.877 2.67555 108.436 4.0157C106.279 6.02037 105.492 9.32128 105.756 12.3645C106.021 15.4077 107.195 18.2666 108.419 21.0282C108.726 21.7231 109.152 22.5072 109.866 22.5957C110.508 22.6752 111.095 22.1015 111.294 21.4443C111.448 20.7701 111.442 20.0654 111.277 19.3942C111.096 18.3685 110.869 17.32 111.039 16.2922C111.208 15.2643 111.899 14.2486 112.868 14.1226C113.836 13.9967 114.827 15.181 114.362 16.0982L114.6 15.7022Z" fill="#2F2E41"/>
<path d="M125.067 96.3479L95.2627 94.2906L97.5061 84.3472L124.746 90.862L125.067 96.3479Z" fill="#CBCBCB"/>
<path d="M106.687 26.7041L108.556 23.9272C108.556 23.9272 110.646 24.687 116.241 27.6671L116.637 30.2687L126.35 94.1882L108.695 93.3733L103.887 93.2639L102.313 89.4904L100.373 93.1839L95.6778 93.077L90.9004 90.1139L95.6086 74.7059L97.1318 60.6313L94.7777 47.3715C94.7777 47.3715 91.8155 35.1953 103.225 28.6301L106.687 26.7041Z" fill="#2F2E41"/>
<path d="M146.481 75.0916C146.048 75.2092 145.597 75.2238 145.159 75.1346C144.721 75.0454 144.306 74.8545 143.944 74.5753C143.582 74.2961 143.282 73.9354 143.065 73.5187C142.847 73.1019 142.718 72.6392 142.686 72.1632L132.211 69.1614L136.425 65.1584L145.726 68.6227C146.477 68.6178 147.203 68.9078 147.768 69.4378C148.333 69.9678 148.696 70.701 148.789 71.4984C148.882 72.2957 148.698 73.1019 148.273 73.7642C147.848 74.4265 147.21 74.8988 146.481 75.0916Z" fill="#FFB7B7"/>
<path d="M141.789 73.397C141.569 73.5253 141.326 73.6026 141.076 73.6238C140.826 73.645 140.575 73.6097 140.338 73.5202L123.107 66.5231C118.903 64.9288 115.384 61.7551 113.203 57.5923L106.017 43.878C105.513 43.2753 105.124 42.5722 104.874 41.8087C104.624 41.0453 104.517 40.2365 104.559 39.4287C104.601 38.6209 104.792 37.8299 105.12 37.1011C105.448 36.3722 105.907 35.7197 106.471 35.1809C107.036 34.6422 107.694 34.2278 108.408 33.9614C109.122 33.6949 109.878 33.5818 110.633 33.6284C111.388 33.675 112.127 33.8804 112.807 34.2328C113.488 34.5853 114.097 35.0779 114.6 35.6825L127.037 56.7734L142.689 66.5914C142.996 66.8068 143.234 67.1178 143.37 67.4823C143.506 67.8468 143.534 68.2472 143.451 68.6295L142.673 72.1584C142.589 72.5368 142.4 72.8789 142.13 73.1392C142.026 73.2392 141.912 73.3257 141.789 73.397Z" fill="#2F2E41"/>
<path d="M274.709 181.513H0.291005C0.213826 181.513 0.139807 181.48 0.0852332 181.422C0.0306592 181.363 0 181.284 0 181.202C0 181.119 0.0306592 181.04 0.0852332 180.982C0.139807 180.924 0.213826 180.891 0.291005 180.891H274.709C274.786 180.891 274.86 180.924 274.915 180.982C274.969 181.04 275 181.119 275 181.202C275 181.284 274.969 181.363 274.915 181.422C274.86 181.48 274.786 181.513 274.709 181.513Z" fill="#CBCBCB"/>
</g>
<defs>
<clipPath id="clip0_169_778">
<rect width="275" height="181.583" fill="white"/>
</clipPath>
</defs>
</svg>

