<svg width="183" height="135" viewBox="0 0 183 135" fill="none" xmlns="http://www.w3.org/2000/svg">
<g clip-path="url(#clip0_169_745)">
<path d="M15.1387 130.461C24.3672 135.602 35.8962 135.341 46.9809 134.136C48.5287 133.968 50.0646 133.784 51.5856 133.592C51.5947 133.589 51.6068 133.59 51.6161 133.587C51.6892 133.578 51.7624 133.568 51.8324 133.561C52.1463 133.521 52.4604 133.48 52.7713 133.44L52.7051 133.566L52.497 133.956C52.5723 133.825 52.6478 133.697 52.7232 133.566C52.7453 133.527 52.7704 133.487 52.7924 133.448C55.404 128.956 57.9821 124.306 58.4021 119.297C58.8348 114.099 56.3527 108.351 50.9624 106.059C50.2555 105.759 49.5123 105.529 48.7467 105.372C48.4286 105.305 48.1072 105.252 47.7828 105.208C44.3886 104.772 40.7534 105.66 38.2277 107.694C34.8868 110.39 33.7187 114.926 35.4159 118.603C30.7339 114.86 31.1629 108.412 32.3601 102.984C33.5603 97.556 35.0458 91.5089 31.6281 86.8442C29.7281 84.2477 26.5763 82.7293 23.1135 82.2204C23.0073 82.2057 22.9013 82.191 22.7951 82.1789C18.776 81.6622 14.3788 82.4868 11.0408 84.5412C4.7219 88.4281 1.78418 95.3736 1.10721 102.074C0.0156808 112.856 4.64638 124.615 15.1387 130.461Z" fill="#F2F2F2"/>
<path d="M16.9396 113.174C17.3442 115.522 18.141 117.806 19.3047 119.955C20.3722 121.854 21.7607 123.604 23.424 125.147C26.8241 128.333 31.2016 130.642 35.8902 132.098C39.4733 133.181 43.1996 133.865 46.9804 134.136C48.5283 133.968 50.0641 133.784 51.5851 133.592C51.5942 133.589 51.6064 133.59 51.6156 133.587C51.6887 133.578 51.7619 133.568 51.832 133.561C52.1459 133.521 52.4599 133.48 52.7708 133.44L52.7046 133.566L52.4965 133.956C52.5719 133.825 52.6473 133.697 52.7227 133.566C52.7448 133.527 52.7699 133.487 52.7919 133.448C49.8268 131.145 47.5405 128.259 46.1244 125.031C44.7083 121.803 44.2037 118.327 44.653 114.895C45.1344 111.485 46.5369 108.222 48.7462 105.372C48.4281 105.304 48.1068 105.252 47.7823 105.208C46.9448 106.324 46.2225 107.503 45.6239 108.729C43.4744 113.104 43.0041 117.964 44.2825 122.59C45.4638 126.774 47.9953 130.579 51.5797 133.558C51.2818 133.553 50.9808 133.546 50.6861 133.537C45.1063 133.389 39.4988 132.612 34.3288 130.724C29.9621 129.133 25.9522 126.683 22.96 123.477C19.6816 119.965 18.0638 115.633 17.555 111.176C17.0127 106.404 17.4246 101.504 18.3923 96.7932C19.3791 91.9645 21.0427 87.2587 23.3458 82.7809C23.3972 82.6793 23.4017 82.5646 23.3584 82.4602C23.3151 82.3559 23.2272 82.27 23.113 82.2204C23.0173 82.1706 22.9029 82.1557 22.7946 82.1789C22.7418 82.1937 22.6936 82.2186 22.6535 82.2519C22.6134 82.2852 22.5824 82.3259 22.5629 82.371C22.2788 82.9241 22.0007 83.4773 21.7348 84.036C19.5201 88.6896 17.9797 93.564 17.1489 98.5474C16.3406 103.355 16.0606 108.358 16.9396 113.174Z" fill="white"/>
<path d="M126.787 32.0739H125.933V11.7585C125.933 8.63994 124.507 5.64912 121.968 3.44398C119.429 1.23884 115.985 1.02933e-06 112.394 0H62.8332C59.2424 0 55.7986 1.23884 53.2595 3.44398C50.7204 5.64912 49.2939 8.63994 49.2939 11.7585V123.212C49.2939 126.331 50.7204 129.322 53.2595 131.527C55.7986 133.732 59.2424 134.971 62.8332 134.971H112.394C115.985 134.971 119.429 133.732 121.968 131.527C124.507 129.322 125.933 126.331 125.933 123.212V46.5348H126.787L126.787 32.0739Z" fill="#3F3D56"/>
<path d="M112.941 3.05811H106.472C106.77 3.6916 106.883 4.37891 106.803 5.0595C106.722 5.74009 106.451 6.39306 106.011 6.96088C105.572 7.5287 104.978 7.99394 104.283 8.31562C103.588 8.63729 102.812 8.80553 102.024 8.8055H73.6312C72.8434 8.80547 72.0678 8.63719 71.3726 8.31549C70.6774 7.99379 70.0839 7.52854 69.6445 6.96073C69.2051 6.39292 68.9333 5.73997 68.8529 5.05941C68.7725 4.37885 68.886 3.69157 69.1835 3.05811H63.1413C61.8135 3.05811 60.4987 3.28524 59.272 3.72653C58.0452 4.16782 56.9306 4.81463 55.9917 5.63003C55.0528 6.44544 54.3081 7.41346 53.7999 8.47884C53.2918 9.54421 53.0303 10.6861 53.0303 11.8392V123.131C53.0303 125.46 54.0955 127.694 55.9917 129.34C57.8879 130.987 60.4597 131.912 63.1413 131.912H112.941C115.623 131.912 118.194 130.987 120.091 129.34C121.987 127.694 123.052 125.46 123.052 123.131V11.839C123.052 9.51018 121.987 7.27671 120.09 5.62997C118.194 3.98323 115.623 3.0581 112.941 3.05811Z" fill="white"/>
<path d="M177.825 132.639C174.233 134.886 169.579 134.998 165.08 134.722C164.452 134.684 163.828 134.639 163.21 134.59C163.206 134.589 163.201 134.589 163.198 134.589C163.168 134.586 163.138 134.584 163.11 134.582C162.982 134.572 162.855 134.561 162.728 134.551L162.758 134.6L162.852 134.754C162.818 134.703 162.784 134.652 162.751 134.601C162.741 134.586 162.73 134.57 162.72 134.555C161.555 132.793 160.399 130.967 160.104 128.956C159.799 126.868 160.655 124.504 162.771 123.478C163.049 123.344 163.342 123.237 163.647 123.16C163.774 123.126 163.902 123.099 164.032 123.075C164.825 122.922 165.651 122.956 166.425 123.172C167.198 123.388 167.892 123.779 168.434 124.305C168.976 124.831 169.347 125.473 169.508 126.165C169.67 126.857 169.616 127.573 169.353 128.241C171.147 126.644 170.812 124.053 170.193 121.887C169.573 119.722 168.823 117.312 170.084 115.367C170.785 114.284 172.017 113.612 173.4 113.342C173.443 113.334 173.485 113.326 173.528 113.319C175.176 113.029 176.889 113.29 178.326 114.049C180.97 115.496 182.329 118.241 182.77 120.929C183.48 125.255 181.908 130.084 177.825 132.639Z" fill="#F2F2F2"/>
<path d="M176.665 125.704C176.561 126.658 176.297 127.594 175.882 128.482C175.499 129.268 174.983 130 174.351 130.653C173.037 131.989 171.374 133.03 169.5 133.691C168.082 134.195 166.597 134.542 165.08 134.723C164.452 134.684 163.828 134.639 163.21 134.59C163.206 134.589 163.201 134.59 163.197 134.589C163.168 134.586 163.138 134.584 163.11 134.582C162.982 134.572 162.854 134.562 162.728 134.551L162.758 134.601L162.852 134.754C162.818 134.703 162.784 134.652 162.751 134.601C162.741 134.586 162.73 134.57 162.72 134.555C163.857 133.571 164.707 132.364 165.197 131.036C165.687 129.707 165.803 128.297 165.536 126.921C165.256 125.556 164.609 124.267 163.647 123.16C163.773 123.127 163.902 123.099 164.031 123.076C164.397 123.51 164.718 123.971 164.99 124.454C165.966 126.177 166.277 128.128 165.878 130.017C165.507 131.726 164.582 133.308 163.211 134.576C163.331 134.569 163.452 134.56 163.571 134.551C165.817 134.386 168.058 133.966 170.095 133.108C171.836 132.391 173.347 131.314 174.496 129.971C175.73 128.493 176.273 126.716 176.367 124.91C176.439 122.964 176.204 121.018 175.669 119.127C175.15 117.199 174.361 115.334 173.32 113.572C173.297 113.532 173.292 113.486 173.307 113.443C173.322 113.4 173.355 113.364 173.4 113.342C173.438 113.32 173.483 113.312 173.528 113.319C173.549 113.324 173.569 113.333 173.586 113.346C173.603 113.358 173.617 113.374 173.626 113.392C173.754 113.61 173.88 113.827 174.001 114.048C175.011 115.882 175.754 117.818 176.214 119.811C176.66 121.734 176.899 123.746 176.665 125.704Z" fill="white"/>
<path d="M182.777 134.986H0.223443C0.164182 134.986 0.107349 134.965 0.0654448 134.929C0.0235411 134.893 0 134.843 0 134.792C0 134.74 0.0235411 134.691 0.0654448 134.654C0.107349 134.618 0.164182 134.598 0.223443 134.598H182.777C182.836 134.598 182.893 134.618 182.935 134.654C182.976 134.691 183 134.74 183 134.792C183 134.843 182.976 134.893 182.935 134.929C182.893 134.965 182.836 134.986 182.777 134.986Z" fill="#3F3D56"/>
<path d="M142.918 132.791L140.178 132.791L138.875 123.614L142.918 123.614L142.918 132.791Z" fill="#FFB8B8"/>
<path d="M138.221 132.111H143.504V135H134.895C134.895 134.62 134.981 134.245 135.148 133.894C135.315 133.544 135.56 133.225 135.869 132.957C136.178 132.689 136.544 132.476 136.948 132.331C137.352 132.186 137.784 132.111 138.221 132.111Z" fill="#2F2E41"/>
<path d="M153.196 132.791L150.457 132.791L149.153 123.614L153.197 123.614L153.196 132.791Z" fill="#FFB8B8"/>
<path d="M148.499 132.111H153.782V135H145.173C145.173 134.62 145.259 134.245 145.426 133.894C145.593 133.544 145.838 133.225 146.147 132.957C146.456 132.689 146.823 132.476 147.226 132.331C147.63 132.186 148.062 132.111 148.499 132.111Z" fill="#2F2E41"/>
<path d="M152.861 105.46C152.566 105.296 152.316 105.077 152.129 104.819C151.942 104.561 151.822 104.271 151.778 103.968C151.734 103.666 151.767 103.359 151.875 103.069C151.982 102.779 152.162 102.512 152.4 102.289L150.597 80.0586L155.792 80.4962L155.935 102.267C156.341 102.64 156.574 103.129 156.592 103.642C156.61 104.155 156.411 104.656 156.032 105.049C155.653 105.443 155.121 105.702 154.536 105.778C153.952 105.854 153.356 105.741 152.861 105.46Z" fill="#FFB8B8"/>
<path d="M142.788 128.168L139.773 128.043C139.516 128.032 139.273 127.937 139.095 127.776C138.917 127.615 138.817 127.4 138.815 127.177L138.605 100.678C138.604 100.552 138.634 100.427 138.693 100.313C138.753 100.198 138.84 100.096 138.949 100.013C139.059 99.9304 139.187 99.8692 139.326 99.8337C139.465 99.7982 139.611 99.7891 139.754 99.8071L151.819 101.328C152.057 101.357 152.276 101.46 152.434 101.617C152.592 101.775 152.679 101.977 152.68 102.186L154.232 126.74C154.233 126.856 154.207 126.97 154.157 127.077C154.107 127.183 154.033 127.28 153.94 127.362C153.846 127.444 153.735 127.509 153.613 127.553C153.49 127.597 153.359 127.62 153.226 127.62H149.975C149.735 127.621 149.503 127.547 149.321 127.412C149.138 127.276 149.018 127.089 148.982 126.883L146.976 115.808C146.947 115.646 146.851 115.499 146.706 115.394C146.562 115.288 146.378 115.232 146.189 115.235C146 115.238 145.819 115.3 145.679 115.41C145.539 115.52 145.449 115.67 145.427 115.833L143.835 127.399C143.805 127.611 143.687 127.806 143.503 127.948C143.319 128.09 143.082 128.168 142.836 128.169C142.82 128.169 142.804 128.169 142.788 128.168Z" fill="#2F2E41"/>
<path d="M144.911 102.187C142.252 100.904 140.175 100.567 139.173 100.48C139.04 100.469 138.911 100.435 138.794 100.379C138.676 100.323 138.573 100.247 138.491 100.156C138.407 100.064 138.345 99.9575 138.309 99.8441C138.273 99.7306 138.264 99.612 138.283 99.4955L141.174 80.8564C141.34 79.766 141.825 78.7307 142.582 77.849C143.34 76.9673 144.344 76.2686 145.5 75.8194C146.619 75.3726 147.852 75.1819 149.079 75.2655C150.307 75.3491 151.49 75.7042 152.515 76.2969C152.615 76.3541 152.712 76.4126 152.807 76.4722C153.988 77.2235 154.886 78.2616 155.388 79.4555C155.891 80.6494 155.975 81.9458 155.631 83.1813C153.858 89.4793 153.249 99.8044 153.145 101.81C153.137 101.981 153.07 102.146 152.954 102.285C152.838 102.423 152.678 102.528 152.493 102.588C151.402 102.932 150.251 103.11 149.091 103.114C147.629 103.121 146.19 102.802 144.911 102.187Z" fill="#26AD71"/>
<path d="M151.773 87.5284C151.651 87.4524 151.551 87.3536 151.479 87.2394C151.407 87.1252 151.366 86.9984 151.358 86.8685L150.977 80.8768C150.939 80.2832 151.156 79.6985 151.585 79.2354C152.015 78.7724 152.626 78.4637 153.302 78.3691C153.978 78.2744 154.67 78.4004 155.245 78.7228C155.82 79.0451 156.238 79.541 156.417 80.1148L158.089 85.4716C158.159 85.6952 158.123 85.9335 157.991 86.1343C157.858 86.3352 157.639 86.4821 157.382 86.543L152.625 87.6632C152.48 87.6975 152.329 87.7032 152.181 87.6798C152.034 87.6565 151.894 87.6047 151.773 87.5284Z" fill="#26AD71"/>
<path d="M147.329 73.2885C150.36 73.2885 152.817 71.1546 152.817 68.5223C152.817 65.89 150.36 63.7561 147.329 63.7561C144.298 63.7561 141.841 65.89 141.841 68.5223C141.841 71.1546 144.298 73.2885 147.329 73.2885Z" fill="#FFB8B8"/>
<path d="M137.005 87.2823C136.382 87.2834 135.778 87.1025 135.289 86.7686L125.952 80.3713C125.876 80.3946 125.798 80.4144 125.72 80.4306C125.383 80.499 125.034 80.5052 124.695 80.4486C124.355 80.3921 124.033 80.2741 123.75 80.1024C123.464 79.9306 123.224 79.7078 123.046 79.449C122.868 79.1902 122.755 78.9013 122.716 78.6017C122.643 78.0602 122.811 77.515 123.186 77.0777C123.561 76.6405 124.114 76.3443 124.732 76.25C125.35 76.1557 125.987 76.2703 126.511 76.5704C127.035 76.8706 127.407 77.3334 127.55 77.8641C127.575 77.9569 127.592 78.051 127.601 78.1459L137.094 82.9016L139.456 81.7206L142.073 84.6958L138.61 86.8388C138.141 87.1282 137.58 87.2832 137.005 87.2823Z" fill="#FFB8B8"/>
<path d="M137.436 82.6047C137.42 82.4753 137.438 82.3444 137.488 82.2217C137.538 82.099 137.619 81.9876 137.725 81.8957L142.611 77.6521C143.095 77.2317 143.741 76.9818 144.424 76.9506C145.108 76.9194 145.781 77.1091 146.313 77.4832C146.845 77.8572 147.199 78.3891 147.306 78.9763C147.413 79.5635 147.266 80.1643 146.894 80.663L143.415 85.3188C143.269 85.5129 143.041 85.649 142.78 85.6972C142.52 85.7454 142.247 85.7018 142.024 85.576L137.889 83.2457C137.763 83.175 137.657 83.0808 137.579 82.9699C137.501 82.8589 137.452 82.7341 137.436 82.6047Z" fill="#26AD71"/>
<path d="M148.871 72.98C148.949 73.0579 149.043 73.1215 149.15 73.1671C149.257 73.2126 149.373 73.2391 149.491 73.245C149.61 73.2509 149.728 73.2361 149.84 73.2015C149.952 73.1669 150.055 73.1131 150.142 73.0434C151.366 72.1831 152.336 71.0824 152.974 69.8321C153.687 68.3551 153.792 66.5528 152.98 65.1684C152.293 63.9981 151.061 63.2531 149.831 62.6442C149.359 62.3862 148.843 62.1965 148.301 62.0826C148.027 62.0287 147.744 62.0251 147.468 62.0721C147.193 62.1191 146.932 62.2157 146.702 62.3556C146.459 62.5166 146.27 62.7322 146.157 62.9793C146.043 63.2264 146.01 63.4956 146.059 63.7581C145.497 63.1143 144.738 62.6199 143.869 62.3305C143.336 62.1312 142.74 62.0966 142.181 62.2323C141.391 62.4613 140.807 63.1541 140.481 63.8985C140.218 64.4683 140.122 65.086 140.201 65.6961C140.235 65.9875 140.337 66.2697 140.501 66.5256C140.665 66.7815 140.888 67.0058 141.155 67.1848C141.799 67.571 142.629 67.5317 143.378 67.3608C144.128 67.1899 144.855 66.9002 145.618 66.8194C146.38 66.7386 147.225 66.9137 147.679 67.5044C147.999 67.9203 148.075 68.4682 148.14 68.9905L148.48 71.707C148.504 72.0956 148.6 72.4783 148.765 72.8402C148.793 72.8907 148.829 72.9377 148.871 72.98Z" fill="#2F2E41"/>
<path d="M61.9639 91.7261H69.5348V93.0129H63.5002V96.9044H68.9502V98.1749H63.5002V103.098H61.9639L61.9639 91.7261Z" fill="#3F3D56"/>
<path d="M71.3633 91.7261H72.9169V103.097H71.3633V91.7261Z" fill="#3F3D56"/>
<path d="M76.0354 102.493C75.4436 101.921 75.148 101.122 75.1484 100.094V94.9973H76.7021V99.8893C76.7021 100.662 76.9032 101.229 77.3054 101.589C77.5186 101.772 77.7734 101.915 78.0535 102.008C78.3336 102.101 78.6329 102.142 78.9325 102.129C79.4308 102.136 79.9194 102.008 80.3306 101.764C80.7368 101.523 81.0642 101.194 81.2809 100.811C81.5048 100.427 81.6208 100.002 81.6193 99.5717V94.9973H83.1744V103.097H81.6927V101.921H81.6193C81.3283 102.353 80.9038 102.705 80.3939 102.938C79.8483 103.21 79.2301 103.352 78.6013 103.351C77.4825 103.351 76.6272 103.065 76.0354 102.493Z" fill="#3F3D56"/>
<path d="M88.1047 103.189C87.8024 103.093 87.5257 102.945 87.2912 102.753C87.0509 102.553 86.8637 102.31 86.7426 102.041C86.6114 101.725 86.5493 101.391 86.5597 101.055V96.2204H84.9326V94.9974H86.5597V92.7102H88.1133V94.9974H90.3812V96.2204H88.1133V100.733C88.0818 101.088 88.1845 101.441 88.4056 101.74C88.5312 101.862 88.687 101.958 88.8614 102.02C89.0358 102.082 89.2241 102.108 89.4121 102.098C89.7762 102.095 90.1317 102.001 90.4359 101.828V103.146C90.2584 103.218 90.0712 103.272 89.8786 103.304C89.6399 103.339 89.3979 103.355 89.1558 103.352C88.7969 103.354 88.4407 103.299 88.1047 103.189Z" fill="#3F3D56"/>
<path d="M94.7053 103.189C94.403 103.093 94.1263 102.945 93.8917 102.753C93.6515 102.553 93.4643 102.31 93.3431 102.041C93.2119 101.725 93.1499 101.391 93.1603 101.055V96.2204H91.5332V94.9974H93.1603V92.7102H94.7139V94.9974H96.9817V96.2204H94.7139V100.733C94.6824 101.088 94.7851 101.441 95.0062 101.74C95.1318 101.862 95.2876 101.958 95.462 102.02C95.6364 102.082 95.8247 102.108 96.0127 102.098C96.3768 102.095 96.7323 102.001 97.0364 101.828V103.146C96.8589 103.218 96.6718 103.272 96.4792 103.304C96.2405 103.339 95.9985 103.355 95.7564 103.352C95.3976 103.354 95.0413 103.299 94.7053 103.189Z" fill="#3F3D56"/>
<path d="M100.22 102.794C99.5164 102.427 98.9437 101.896 98.566 101.263C98.162 100.583 97.9578 99.8275 97.9713 99.0629C97.9621 98.3153 98.1529 97.576 98.5286 96.9033C98.8821 96.2643 99.4291 95.721 100.111 95.3314C100.818 94.9335 101.646 94.7288 102.488 94.7436C103.322 94.7256 104.145 94.9096 104.866 95.2751C105.532 95.6261 106.068 96.1361 106.411 96.7445C106.782 97.4127 106.967 98.1473 106.95 98.8891C106.953 99.0281 106.935 99.1668 106.896 99.3017H99.5264C99.5406 99.8503 99.7171 100.386 100.039 100.859C100.319 101.262 100.72 101.592 101.2 101.811C101.653 102.02 102.158 102.129 102.671 102.129C103.866 102.129 104.787 101.642 105.433 100.669L106.749 101.225C106.37 101.86 105.805 102.397 105.112 102.782C104.368 103.154 103.526 103.351 102.668 103.353C101.81 103.356 100.966 103.163 100.22 102.794ZM105.303 98.1888C105.274 97.834 105.162 97.4881 104.973 97.1721C104.762 96.8183 104.443 96.5216 104.051 96.3143C103.573 96.0684 103.023 95.9472 102.468 95.9654C101.781 95.9506 101.115 96.1701 100.612 96.5769C100.091 97.0087 99.7424 97.5732 99.6157 98.1888H105.303Z" fill="#3F3D56"/>
<path d="M108.759 94.9973H110.24V96.2991H110.314C110.514 95.8355 110.888 95.4438 111.375 95.1874C111.861 94.901 112.434 94.7461 113.021 94.7422C113.397 94.7341 113.77 94.7937 114.118 94.9173V96.3628C113.708 96.19 113.258 96.1031 112.802 96.109C112.358 96.1073 111.924 96.2238 111.558 96.4429C111.174 96.6719 110.863 96.9811 110.652 97.342C110.427 97.7179 110.31 98.1361 110.314 98.56V103.097H108.76V94.9973H108.759Z" fill="#3F3D56"/>
<path d="M92.8883 65.5627L113.233 83.3152L94.0174 83.1212L86.8672 76.9114L92.8883 65.5627Z" fill="#01579B"/>
<path d="M101.135 72.7585L86.8672 76.9116L95.5964 67.8867L101.135 72.7585Z" fill="url(#paint0_linear_169_745)"/>
<path d="M113.097 29.0869L72.4232 64.4145L62.8486 56.1012L93.9564 29.0869H113.097Z" fill="#54C5F8"/>
<path d="M77.1475 68.6642L93.9057 54.1101H113.122L86.7555 76.8145L77.1475 68.6642Z" fill="#54C5F8"/>
<path d="M86.7766 60.2578L96.3509 68.569L86.8668 76.9116L77.2588 68.7613L86.7766 60.2578Z" fill="#29B6F6"/>
</g>
<defs>
<linearGradient id="paint0_linear_169_745" x1="89.2937" y1="78.2012" x2="95.4183" y2="71.149" gradientUnits="userSpaceOnUse">
<stop stop-color="#1A237E" stop-opacity="0.4"/>
<stop offset="1" stop-color="#1A237E" stop-opacity="0"/>
</linearGradient>
<clipPath id="clip0_169_745">
<rect width="183" height="135" fill="white"/>
</clipPath>
</defs>
</svg>

