<svg width="235" height="160" viewBox="0 0 235 160" fill="none" xmlns="http://www.w3.org/2000/svg">
<g clip-path="url(#clip0_171_906)">
<path d="M142.79 99.6061L142.407 103.554C142.361 104.015 142.109 104.442 141.706 104.74C141.303 105.038 140.781 105.184 140.255 105.145L102.733 102.346C102.207 102.306 101.721 102.085 101.381 101.731C101.041 101.378 100.875 100.92 100.919 100.459L101.302 96.511C101.347 96.05 101.599 95.6237 102.003 95.3255C102.406 95.0273 102.928 94.8815 103.453 94.9202L140.976 97.7195C141.501 97.7593 141.988 97.9802 142.328 98.3339C142.668 98.6876 142.834 99.1451 142.79 99.6061Z" fill="#26AD71"/>
<path d="M150.268 118.864L146.112 120.419C145.103 120.796 144.064 120.656 143.797 120.107L134.618 101.24C134.351 100.69 134.954 99.9357 135.963 99.5581L140.119 98.0031C141.128 97.6256 142.167 97.7656 142.434 98.3153L151.613 117.182C151.881 117.732 151.277 118.486 150.268 118.864Z" fill="#26AD71"/>
<path d="M128.267 112.751H57.892C58.7025 107.607 57.7028 102.368 55.0264 97.7348C52.3501 93.1019 48.1248 89.296 42.9154 86.8259C37.706 84.3557 31.7608 83.3391 25.8748 83.912C19.9888 84.4849 14.4425 86.6199 9.97748 90.0316C5.51246 93.4433 2.34155 97.9691 0.88872 103.004C-0.564107 108.039 -0.229602 113.342 1.84751 118.206C3.92462 123.069 7.64533 127.261 12.5122 130.22C17.379 133.179 23.1599 134.765 29.0821 134.765C32.6399 134.768 36.1681 134.197 39.4904 133.081V157.852C39.4904 158.422 39.7484 158.968 40.2077 159.371C40.667 159.774 41.2899 160 41.9394 160H128.267C128.917 160 129.54 159.774 129.999 159.371C130.458 158.968 130.716 158.422 130.716 157.852V114.899C130.716 114.329 130.458 113.783 129.999 113.38C129.54 112.977 128.917 112.751 128.267 112.751Z" fill="#E6E6E6"/>
<path d="M133.472 154.362H47.1438C46.4134 154.362 45.7131 154.107 45.1965 153.654C44.68 153.201 44.3895 152.587 44.3887 151.946V108.993C44.3895 108.352 44.68 107.738 45.1965 107.285C45.7131 106.832 46.4134 106.577 47.1438 106.577H133.472C134.202 106.577 134.902 106.832 135.419 107.285C135.935 107.738 136.226 108.352 136.227 108.993V151.946C136.226 152.587 135.935 153.201 135.419 153.654C134.902 154.107 134.202 154.362 133.472 154.362ZM47.1438 107.114C46.5757 107.114 46.031 107.312 45.6293 107.665C45.2276 108.017 45.0016 108.495 45.0009 108.993V151.946C45.0016 152.444 45.2276 152.922 45.6293 153.274C46.031 153.627 46.5757 153.825 47.1438 153.825H133.472C134.04 153.825 134.585 153.627 134.986 153.274C135.388 152.922 135.614 152.444 135.615 151.946V108.993C135.614 108.495 135.388 108.017 134.986 107.665C134.585 107.312 134.04 107.114 133.472 107.114H47.1438Z" fill="#3F3D56"/>
<path d="M133.606 102.559L133.223 106.507C133.178 106.968 132.926 107.395 132.523 107.693C132.119 107.991 131.597 108.137 131.072 108.098L93.5495 105.299C93.0239 105.259 92.5377 105.038 92.1977 104.684C91.8576 104.331 91.6914 103.873 91.7355 103.412L92.1185 99.4641C92.1638 99.0032 92.4158 98.5768 92.8191 98.2786C93.2224 97.9804 93.7441 97.8346 94.2698 97.8733L131.792 100.673C132.318 100.712 132.804 100.933 133.144 101.287C133.484 101.641 133.65 102.098 133.606 102.559Z" fill="#26AD71"/>
<path d="M141.085 121.817L136.929 123.372C135.919 123.749 134.881 123.609 134.613 123.06L125.434 104.193C125.167 103.643 125.771 102.889 126.78 102.511L130.936 100.956C131.945 100.579 132.983 100.719 133.251 101.268L142.43 120.135C142.697 120.685 142.094 121.439 141.085 121.817Z" fill="#26AD71"/>
<path d="M209.457 0.289558L201.679 5.51221L207.634 12.333L215.412 7.11037L209.457 0.289558Z" fill="#26AD71"/>
<path d="M165.474 54.2697C169.194 54.2697 172.209 51.6254 172.209 48.3636C172.209 45.1018 169.194 42.4575 165.474 42.4575C161.755 42.4575 158.739 45.1018 158.739 48.3636C158.739 51.6254 161.755 54.2697 165.474 54.2697Z" fill="#FF6584"/>
<path d="M163.746 52.567C162.9 51.5974 162.4 50.4294 162.311 49.2107C162.221 47.992 162.545 46.7774 163.243 45.7204C163.94 44.6635 164.98 43.8116 166.229 43.2726C167.479 42.7336 168.883 42.5317 170.263 42.6923C171.644 42.853 172.939 43.369 173.985 44.1751C175.031 44.9813 175.781 46.0413 176.14 47.2213C176.499 48.4012 176.451 49.648 176.002 50.804C175.553 51.96 174.723 52.9732 173.617 53.7157C172.134 54.7094 170.262 55.1466 168.411 54.9313C166.561 54.7159 164.883 53.8656 163.746 52.567ZM174.441 45.3859C173.668 44.5006 172.613 43.8361 171.41 43.4766C170.206 43.1171 168.908 43.0787 167.679 43.3662C166.451 43.6537 165.347 44.2542 164.508 45.0917C163.669 45.9293 163.131 46.9663 162.964 48.0716C162.797 49.1769 163.007 50.3009 163.568 51.3015C164.129 52.302 165.016 53.1341 166.117 53.6926C167.217 54.2511 168.482 54.5109 169.751 54.4391C171.02 54.3674 172.236 53.9672 173.245 53.2894C174.597 52.3793 175.482 51.0362 175.707 49.5545C175.931 48.0728 175.476 46.5736 174.441 45.3859Z" fill="#3F3D56"/>
<path d="M209.965 12.7962L203.638 5.54906L211.902 0L218.229 7.24711L209.965 12.7962ZM204.496 5.64895L210.079 12.0435L217.371 7.14723L211.788 0.752728L204.496 5.64895Z" fill="#3F3D56"/>
<path d="M226.226 48.1997L218.448 53.4224L224.404 60.2432L232.182 55.0205L226.226 48.1997Z" fill="#26AD71"/>
<path d="M226.736 60.7058L220.408 53.4587L228.672 47.9097L235 55.1568L226.736 60.7058ZM221.267 53.5586L226.85 59.9531L234.142 55.0569L228.558 48.6624L221.267 53.5586Z" fill="#3F3D56"/>
<path d="M191.329 153.826H0.305664V154.363H191.329V153.826Z" fill="#3F3D56"/>
<path d="M33.0621 128.053C27.2496 128.053 21.5677 126.542 16.7348 123.71C11.902 120.878 8.13521 116.853 5.91089 112.144C3.68656 107.435 3.10458 102.253 4.23853 97.2534C5.37248 92.2541 8.17144 87.662 12.2815 84.0577C16.3915 80.4535 21.6279 77.9989 27.3287 77.0045C33.0295 76.0101 38.9384 76.5204 44.3084 78.4711C49.6784 80.4217 54.2683 83.7249 57.4975 87.9631C60.7267 92.2013 62.4503 97.1841 62.4503 102.281C62.4415 109.114 59.3424 115.665 53.8329 120.496C48.3235 125.328 40.8536 128.046 33.0621 128.053ZM33.0621 77.0462C27.3707 77.0462 21.8072 78.5262 17.075 81.2991C12.3428 84.072 8.65452 88.0131 6.47654 92.6242C4.29855 97.2354 3.72869 102.309 4.83902 107.204C5.94935 112.1 8.68999 116.596 12.7144 120.125C16.7388 123.654 21.8662 126.058 27.4482 127.031C33.0301 128.005 38.816 127.505 44.0742 125.595C49.3323 123.685 53.8265 120.451 56.9884 116.301C60.1503 112.151 61.838 107.272 61.838 102.281C61.8294 95.5909 58.7949 89.1766 53.4002 84.4457C48.0055 79.7149 40.6913 77.0538 33.0621 77.0462Z" fill="#3F3D56"/>
<path d="M96.8651 64.0341C105.914 64.0341 113.249 57.6015 113.249 49.6665C113.249 41.7315 105.914 35.2988 96.8651 35.2988C87.8167 35.2988 80.4814 41.7315 80.4814 49.6665C80.4814 57.6015 87.8167 64.0341 96.8651 64.0341Z" fill="#26AD71"/>
<path d="M99.2758 54.9917L99.2588 54.4548C100.398 54.427 101.402 54.3644 102.157 53.8809C102.37 53.7361 102.546 53.5525 102.672 53.3428C102.798 53.133 102.871 52.9019 102.886 52.6653C102.899 52.5207 102.874 52.3753 102.813 52.2406C102.751 52.1058 102.656 51.9852 102.533 51.8882C102.032 51.5172 101.226 51.6373 100.638 51.8735L100.132 52.0772L101.103 45.8516L101.71 45.9244L100.883 51.2202C101.682 51.0144 102.421 51.103 102.928 51.4782C103.122 51.6271 103.275 51.8134 103.374 52.0226C103.473 52.2318 103.515 52.4582 103.497 52.6841C103.479 53.0021 103.383 53.3128 103.213 53.5944C103.044 53.8761 102.807 54.1219 102.518 54.3146C101.548 54.9359 100.288 54.9668 99.2758 54.9917Z" fill="#2F2E41"/>
<path d="M108.007 46.3809H104.71V46.9178H108.007V46.3809Z" fill="#2F2E41"/>
<path d="M97.5992 46.3809H94.3018V46.9178H97.5992V46.3809Z" fill="#2F2E41"/>
<path d="M120.308 107.248H81.736C81.3707 107.248 81.0206 107.12 80.7623 106.894C80.5041 106.667 80.3588 106.36 80.3584 106.04V78.8664C80.3626 75.5725 81.8566 72.4146 84.5126 70.0854C87.1686 67.7563 90.7696 66.4461 94.5258 66.4424H107.145C107.506 66.4427 107.852 66.5674 108.11 66.7895C108.368 67.0116 108.515 67.3135 108.522 67.6303L121.686 106.02V106.04C121.685 106.36 121.54 106.667 121.282 106.894C121.023 107.12 120.673 107.248 120.308 107.248Z" fill="#2F2E41"/>
<path d="M94.6861 77.4371L99.2042 77.4682C99.7317 77.4724 100.236 77.6599 100.606 77.9896C100.976 78.3192 101.182 78.7642 101.178 79.2268L100.882 112.25C100.878 112.712 100.664 113.155 100.288 113.479C99.912 113.804 99.4046 113.984 98.877 113.981L94.3589 113.95C93.8314 113.946 93.3273 113.758 92.9572 113.429C92.5871 113.099 92.3813 112.654 92.3848 112.191L92.6807 79.1683C92.6855 78.7057 92.8993 78.2636 93.2752 77.939C93.6512 77.6145 94.1586 77.434 94.6861 77.4371Z" fill="#26AD71"/>
<path d="M90.1543 76.1068C90.1543 74.5404 90.8638 73.0381 92.1269 71.9305C93.3899 70.8229 95.1029 70.2007 96.8891 70.2007C98.6753 70.2007 100.388 70.8229 101.651 71.9305C102.914 73.0381 103.624 74.5404 103.624 76.1068V89.2612H90.1543V76.1068Z" fill="#2F2E41"/>
<path d="M92.0252 42.8993C93.5769 41.4991 95.8312 41.2584 97.9525 41.4107C100.224 41.5739 102.377 42.2357 104.605 42.6037C106.803 42.9668 109.186 43.1295 111.287 42.3253C112.257 41.9433 113.097 41.3473 113.726 40.5955C114.355 39.8436 114.751 38.9616 114.875 38.0356C115.146 36.0908 114.571 34.128 113.266 32.5379C111.827 30.755 109.783 29.4491 107.658 28.3529C103.078 25.99 97.9712 23.9223 92.6122 23.5401C87.7741 23.195 82.6438 24.3676 79.2404 27.5362C76.05 30.5066 74.6919 34.652 74.4095 38.644C74.0491 43.7391 75.405 48.7708 75.8957 53.8229C76.2775 57.754 76.1345 62.4733 72.4939 65.2964C69.2738 67.7935 64.3705 67.7637 60.5739 66.3996C56.0613 64.7783 52.8949 61.1385 50.5 57.5612C49.8903 56.6505 49.3172 55.7215 48.7614 54.7848C48.4885 54.3249 47.6956 54.7316 47.9684 55.1913C50.2097 58.9686 52.8167 62.7415 56.7372 65.3589C60.1651 67.6475 64.7389 68.7499 68.9758 67.7827C71.0301 67.333 72.8651 66.3161 74.21 64.8821C75.6621 63.2954 76.4242 61.3431 76.7421 59.3458C77.0824 57.2081 76.9637 55.0539 76.7173 52.9137C76.4205 50.3372 75.9475 47.7796 75.6235 45.2059C75.0717 40.8228 74.9957 36.2737 76.9706 32.1324C77.822 30.2855 79.1448 28.6343 80.8374 27.3056C82.6899 25.936 84.9125 25.0066 87.2922 24.6065C92.4839 23.6617 97.7615 24.9408 102.461 26.8685C104.833 27.7977 107.104 28.9149 109.244 30.2061C111.141 31.3969 112.908 32.9565 113.639 34.9452C114.269 36.659 114.216 38.6879 112.961 40.1823C111.619 41.7794 109.293 42.1782 107.161 42.082C102.781 41.8845 98.3676 39.6525 93.9607 40.9264C92.9822 41.2037 92.0951 41.6853 91.3758 42.3298C90.9636 42.7017 91.6124 43.2718 92.0252 42.8993Z" fill="#2F2E41"/>
</g>
<defs>
<clipPath id="clip0_171_906">
<rect width="235" height="160" fill="white"/>
</clipPath>
</defs>
</svg>
