<svg width="259" height="140" viewBox="0 0 259 140" fill="none" xmlns="http://www.w3.org/2000/svg">
<g clip-path="url(#clip0_169_694)">
<path d="M35.2383 111.93H230.026V1.79468H35.2383V111.93Z" fill="white"/>
<path d="M231.632 113.725H33.6313V0H231.632V113.725ZM36.845 110.136H228.419V3.58926H36.845V110.136Z" fill="#E5E5E5"/>
<path d="M126.15 25.0945V62.4758H77.4967L68.5083 74.521L69.5346 62.4758H65.1611V25.0945H126.15Z" fill="#26AD71"/>
<path d="M155.593 27.3123V51.2797H186.788L192.551 59.0022L191.893 51.2797H194.697V27.3123H155.593Z" fill="#F0F0F0"/>
<path d="M26.8533 136.465H29.6677L31.0067 124.341H26.853L26.8533 136.465Z" fill="#FFB7B7"/>
<path d="M26.1353 135.439L31.6778 135.438C32.6145 135.439 33.5131 135.854 34.1755 136.594C34.8379 137.334 35.21 138.337 35.2101 139.383V139.512L26.1354 139.512L26.1353 135.439Z" fill="#2F2E41"/>
<path d="M60.6655 136.362L63.3985 135.61L62.1047 123.48L58.0713 124.589L60.6655 136.362Z" fill="#FFB7B7"/>
<path d="M59.749 135.557L65.1309 134.077C66.0405 133.827 67.002 133.991 67.8035 134.533C68.605 135.074 69.181 135.949 69.4049 136.965L69.4323 137.09L60.6206 139.512L59.749 135.557Z" fill="#2F2E41"/>
<path d="M25.1226 133.574L25.7072 130.233C25.7072 130.233 26.7834 117.334 34.5067 104.46L37.0206 90.4751C37.0206 90.4751 36.274 79.8895 43.48 74.1594L45.7016 72.4502L53.4907 72.9488L55.2896 83.9488L58.9143 109.976C58.9143 109.976 59.8497 110.074 60.2005 113.084C60.9135 114.348 61.3353 115.789 61.4283 117.279C61.4283 117.279 63.2833 122.995 63.7802 127.203L63.7217 131.321L59.8047 133.652L51.6406 107.864L45.8013 93.4479C45.8013 93.4479 42.9908 103.605 38.6861 112.307C38.6861 112.307 32.7899 126.56 31.612 129.456L30.3258 134.196L25.1226 133.574Z" fill="#2F2E41"/>
<path d="M51.1655 50.3159C54.2402 50.3159 56.7328 47.532 56.7328 44.0979C56.7328 40.6638 54.2402 37.8799 51.1655 37.8799C48.0907 37.8799 45.5981 40.6638 45.5981 44.0979C45.5981 47.532 48.0907 50.3159 51.1655 50.3159Z" fill="#FFB7B7"/>
<path d="M51.1655 50.3159C54.2402 50.3159 56.7328 47.532 56.7328 44.0979C56.7328 40.6638 54.2402 37.8799 51.1655 37.8799C48.0907 37.8799 45.5981 40.6638 45.5981 44.0979C45.5981 47.532 48.0907 50.3159 51.1655 50.3159Z" fill="#FFB8B8"/>
<path d="M43.4961 74.2258L45.3339 69.0986C44.0354 64.4011 44.115 59.3631 45.5611 54.7197L45.9127 54.3963C48.976 51.5788 51.6646 52.0917 54.1595 55.5383C54.5613 56.0986 55.0312 56.5934 55.5556 57.0085C56.6559 57.8707 58.4017 62.5553 56.0967 65.3013L54.2527 77.3151C54.4469 83.9481 50.1373 81.4505 43.4961 74.2258Z" fill="#3F3D56"/>
<path d="M69.8482 67.2523C69.6106 67.0515 69.3364 66.9114 69.045 66.8418C68.7536 66.7722 68.4521 66.7749 68.1617 66.8495C67.8713 66.9241 67.599 67.069 67.3642 67.2738C67.1293 67.4787 66.9376 67.7385 66.8023 68.0351L62.1585 67.6313L61.2505 70.7233L67.8157 71.1907C68.2768 71.4114 68.7944 71.4354 69.2704 71.2583C69.7464 71.0812 70.1477 70.7153 70.3982 70.2298C70.6488 69.7444 70.7311 69.1731 70.6298 68.6243C70.5284 68.0756 70.2503 67.5874 69.8482 67.2523Z" fill="#FFB7B7"/>
<path d="M65.4023 72.2683L52.1698 69.5088L47.8659 61.4496C47.5893 60.5932 47.6287 59.6493 47.9753 58.8253C48.322 58.0014 48.9475 57.365 49.7142 57.0561C50.481 56.7473 51.3262 56.7912 52.0639 57.1784C52.8016 57.5655 53.3714 58.2641 53.6479 59.1205L55.6666 65.3552L66.1317 67.2899L65.4023 72.2683Z" fill="#CCCCCC"/>
<path d="M41.2416 42.736C44.1914 42.736 46.5827 40.0652 46.5827 36.7706C46.5827 33.476 44.1914 30.8052 41.2416 30.8052C38.2917 30.8052 35.9004 33.476 35.9004 36.7706C35.9004 40.0652 38.2917 42.736 41.2416 42.736Z" fill="#2F2E41"/>
<path d="M36.6347 41.7103C37.326 42.2684 38.1269 42.6334 38.9705 42.7749C39.814 42.9163 40.6756 42.8301 41.4831 42.5234C42.2907 42.2167 43.0208 41.6985 43.6123 41.0121C44.2037 40.3257 44.6394 39.491 44.8829 38.578C44.7907 39.3962 44.5477 40.1842 44.1692 40.8923C43.7906 41.6003 43.2847 42.213 42.6835 42.6917C42.0822 43.1703 41.3986 43.5045 40.6758 43.6732C39.9531 43.8419 39.2069 43.8414 38.4843 43.6718C37.7617 43.5021 37.0785 43.167 36.4777 42.6875C35.8769 42.2081 35.3717 41.5947 34.9939 40.8862C34.6161 40.1776 34.3739 39.3893 34.2826 38.5709C34.1914 37.7526 34.253 36.922 34.4637 36.1316C34.3441 37.1935 34.4825 38.2718 34.8645 39.2533C35.2465 40.2349 35.8579 41.0836 36.6347 41.7103Z" fill="#2F2E41"/>
<path d="M57.713 41.7169C56.7805 39.8525 56.4238 39.0736 55.2215 37.9399C54.1583 36.9372 52.8506 36.6428 51.7958 37.5928C50.548 36.9907 49.1596 36.8541 47.8368 37.2035C46.514 37.5529 45.3274 38.3695 44.4532 39.532C43.5791 40.6946 43.064 42.1411 42.9845 43.6566C42.9049 45.1722 43.2653 46.6759 44.0119 47.9446C44.7586 49.2132 45.8517 50.179 47.1289 50.6984C48.4061 51.2179 49.7993 51.2634 51.1015 50.8281C52.4038 50.3929 53.5455 49.5001 54.3572 48.2823C55.169 47.0646 55.6073 45.5869 55.6072 44.0687C55.6063 43.8021 55.5919 43.5358 55.5642 43.271C56.481 43.1272 56.7961 41.8607 57.713 41.7169Z" fill="#2F2E41"/>
<path d="M221.908 86.3459C221.926 85.9344 222.024 85.5322 222.196 85.1676C222.367 84.803 222.608 84.4849 222.902 84.2357C223.196 83.9865 223.535 83.8122 223.895 83.7251C224.256 83.638 224.629 83.6403 224.989 83.7318L228.325 78.4805L231.677 79.9666L226.872 87.3085C226.694 87.9731 226.305 88.5418 225.777 88.9069C225.249 89.272 224.619 89.4082 224.007 89.2895C223.396 89.1708 222.844 88.8056 222.457 88.2631C222.07 87.7206 221.875 87.0384 221.908 86.3459Z" fill="#A0616A"/>
<path d="M225.568 81.8299L231.5 70.6873L229.083 63.4894L232.375 53.6858L232.496 53.744C232.576 53.782 234.446 54.7142 234.723 58.0523L238.506 71.3297L228.411 85.9568L225.568 81.8299Z" fill="#3F3D56"/>
<path d="M193.352 40.8662C193.718 40.9174 194.069 41.0576 194.381 41.277C194.694 41.4964 194.959 41.7895 195.159 42.1358C195.358 42.4821 195.488 42.8731 195.538 43.2812C195.588 43.6894 195.557 44.1048 195.447 44.4982L199.877 48.6193L198.291 52.2367L192.109 46.3187C191.529 46.0696 191.052 45.5916 190.767 44.9755C190.481 44.3594 190.409 43.6479 190.562 42.9758C190.715 42.3037 191.084 41.7177 191.598 41.3289C192.112 40.94 192.736 40.7754 193.352 40.8662Z" fill="#A0616A"/>
<path d="M197.101 45.2908L206.589 52.7576L213.201 50.623L221.698 55.0462L221.636 55.1769C221.596 55.2626 220.62 57.2731 217.618 57.3236L205.473 60.5091L193.197 48.1369L197.101 45.2908Z" fill="#3F3D56"/>
<path d="M214.462 136.091H211.163L209.594 121.881L214.462 121.881L214.462 136.091Z" fill="#A0616A"/>
<path d="M208.807 135.038H215.168V139.512H204.802C204.802 138.924 204.905 138.343 205.107 137.8C205.308 137.257 205.603 136.764 205.975 136.349C206.347 135.933 206.788 135.604 207.274 135.379C207.76 135.154 208.281 135.038 208.807 135.038Z" fill="#2F2E41"/>
<path d="M227.645 136.091H224.347L222.778 121.881L227.646 121.881L227.645 136.091Z" fill="#A0616A"/>
<path d="M221.991 135.038H228.352V139.512H217.985C217.985 138.924 218.089 138.343 218.29 137.8C218.492 137.257 218.787 136.764 219.158 136.349C219.53 135.933 219.972 135.604 220.458 135.379C220.944 135.154 221.465 135.038 221.991 135.038Z" fill="#2F2E41"/>
<path d="M228.819 84.2236L228.55 105.258L228.28 132.904L222.361 132.303L219.402 94.14L215.635 132.303H209.524L208.909 93.8393L211.061 85.4254L228.819 84.2236Z" fill="#2F2E41"/>
<path d="M210.471 85.5539L209.569 85.5103L213.758 59.7399L212.043 51.9507C211.954 51.5455 212.001 51.1178 212.175 50.7487C212.349 50.3796 212.639 50.0948 212.989 49.9482L216.074 48.6559L217.164 45.3076L225.765 46.3427L225.977 48.9595C226.909 49.2934 234.584 52.1482 234.054 55.401C233.532 58.6117 230.446 68.713 230.289 69.2249L229.748 83.7113L229.682 83.7485C229.602 83.7932 223.674 87.0488 217.233 87.0482C214.91 87.0916 212.605 86.5822 210.471 85.5539Z" fill="#3F3D56"/>
<path d="M221.128 43.6505C224.548 43.6505 227.32 40.5539 227.32 36.7341C227.32 32.9142 224.548 29.8176 221.128 29.8176C217.708 29.8176 214.935 32.9142 214.935 36.7341C214.935 40.5539 217.708 43.6505 221.128 43.6505Z" fill="#A0616A"/>
<path d="M226.144 43.4295C224.964 44.8336 222.772 44.0798 222.618 42.1617C222.606 42.0127 222.607 41.8629 222.621 41.7141C222.7 40.8645 223.14 40.0931 223.034 39.196C223.011 38.9727 222.936 38.7599 222.818 38.5778C221.878 37.1712 219.67 39.2069 218.782 37.9336C218.238 37.1528 218.878 35.9236 218.46 35.051C217.909 33.8992 216.276 34.4674 215.253 33.8366C214.113 33.1349 214.182 31.1828 214.931 29.9954C215.846 28.5474 217.449 27.7747 219.033 27.6634C220.616 27.552 222.189 28.0301 223.667 28.6735C225.347 29.4046 227.012 30.415 228.046 32.0645C229.303 34.0705 229.424 36.7673 228.795 39.113C228.413 40.5399 227.108 42.2829 226.144 43.4295Z" fill="#2F2E41"/>
<path d="M159.05 134.18L159.97 131.537L151.28 126.316L149.922 130.217L159.05 134.18Z" fill="#FFB8B8"/>
<path d="M163.979 127.285C163.589 127.116 163.173 127.034 162.754 127.044C162.336 127.054 161.923 127.156 161.54 127.344C161.157 127.533 160.811 127.803 160.522 128.141C160.233 128.479 160.006 128.877 159.854 129.313L159.234 131.095L158.277 133.845L158.043 134.519L161.109 135.851L164.075 127.328L163.979 127.285Z" fill="#2F2E41"/>
<path d="M158.277 129.094L157.877 130.279L156.878 133.237L156.854 133.311C154.31 133.676 151.521 132.96 148.942 131.848C147.91 131.404 146.899 130.9 145.913 130.339C144.454 129.516 143.148 128.647 142.106 127.904C140.537 126.779 139.567 125.934 139.567 125.934C139.567 125.934 139.311 126.193 138.847 126.637C138.225 127.231 137.232 128.158 135.974 129.25C135.494 129.67 134.979 130.108 134.428 130.566C130.369 133.929 125.159 124.956 125.159 124.956C125.159 124.956 126.624 123.914 127.007 123.712C128.239 123.061 131.135 121.524 133.633 120.158C134.92 119.454 136.1 118.793 136.892 118.323C139.697 116.655 143.184 119.812 143.184 119.812L158.277 129.094Z" fill="#2F2E41"/>
<path opacity="0.14" d="M158.277 129.094L157.877 130.279L156.878 133.237L156.854 133.311C154.31 133.676 151.521 132.96 148.942 131.848C147.91 131.404 146.899 130.9 145.913 130.339C144.454 129.516 143.148 128.647 142.106 127.904C140.537 126.779 139.567 125.934 139.567 125.934C139.567 125.934 139.311 126.193 138.847 126.637C138.225 127.231 137.232 128.158 135.974 129.25C135.494 129.67 134.979 130.108 134.428 130.566C130.369 133.929 125.159 124.956 125.159 124.956C125.159 124.956 126.624 123.914 127.007 123.712C128.239 123.061 131.135 121.524 133.633 120.158C134.92 119.454 136.1 118.793 136.892 118.323C139.697 116.655 143.184 119.812 143.184 119.812L158.277 129.094Z" fill="black"/>
<path d="M117.674 104.217H105.663C105.416 104.217 105.179 104.107 105.004 103.912C104.83 103.717 104.731 103.452 104.731 103.176V97.3938C104.731 95.3388 105.462 93.3679 106.763 91.9148C108.064 90.4616 109.829 89.6453 111.669 89.6453C113.509 89.6453 115.273 90.4616 116.574 91.9148C117.875 93.3679 118.606 95.3388 118.606 97.3938V103.176C118.606 103.452 118.508 103.717 118.333 103.912C118.158 104.107 117.921 104.217 117.674 104.217Z" fill="#2F2E41"/>
<path d="M129.097 111.48C128.817 111.535 128.552 111.658 128.319 111.84C128.087 112.021 127.893 112.258 127.751 112.533C127.609 112.807 127.523 113.113 127.498 113.429C127.474 113.745 127.512 114.063 127.609 114.361L124.343 117.716L125.684 120.43L130.237 115.62C130.674 115.404 131.025 115.016 131.224 114.531C131.422 114.045 131.454 113.495 131.313 112.985C131.173 112.474 130.87 112.039 130.461 111.762C130.053 111.485 129.567 111.385 129.097 111.48Z" fill="#FFB8B8"/>
<path d="M119.269 126.735C119.122 126.735 118.974 126.728 118.826 126.714C117.945 126.632 117.097 126.301 116.362 125.752C115.627 125.204 115.028 124.456 114.623 123.578L109.39 112.33C109.047 111.593 108.972 110.736 109.18 109.939C109.388 109.141 109.863 108.464 110.507 108.048C111.15 107.632 111.913 107.509 112.636 107.705C113.358 107.901 113.986 108.4 114.387 109.1L119.215 121.197L125.783 115.236L129.587 116.89L123.164 124.81C122.67 125.415 122.069 125.899 121.398 126.231C120.728 126.562 120.003 126.734 119.269 126.735Z" fill="#26AD71"/>
<path d="M158.315 137.898L159.414 135.341L151.109 129.39L149.487 133.163L158.315 137.898Z" fill="#FFB8B8"/>
<path d="M163.704 131.446C163.327 131.243 162.918 131.126 162.5 131.1C162.082 131.074 161.664 131.141 161.269 131.296C160.874 131.451 160.511 131.691 160.199 132.003C159.887 132.315 159.634 132.692 159.453 133.114L158.711 134.837L157.568 137.497L157.289 138.149L160.254 139.74L163.798 131.497L163.704 131.446Z" fill="#2F2E41"/>
<path d="M157.895 132.76L157.415 133.907L156.216 136.77L156.187 136.842C153.625 136.988 150.893 136.035 148.398 134.705C147.399 134.173 146.426 133.584 145.482 132.94C144.084 131.994 142.842 131.016 141.854 130.185C140.367 128.929 139.458 128.004 139.458 128.004C139.458 128.004 139.184 128.24 138.691 128.643C138.031 129.182 136.977 130.021 135.647 131.002C135.14 131.379 134.596 131.772 134.015 132.181C129.737 135.186 123.652 138.845 118.477 139.618C109.387 140.976 111.527 127.428 111.527 127.428L118.761 123.232L121.832 123.929L125.251 124.701L126.462 124.976C126.462 124.976 126.692 124.879 127.088 124.711C128.361 124.167 131.354 122.883 133.939 121.736C135.27 121.144 136.492 120.586 137.314 120.186C140.226 118.764 143.486 122.21 143.486 122.21L157.895 132.76Z" fill="#2F2E41"/>
<path d="M98.2896 139.941C98.5663 139.87 98.8257 139.733 99.0496 139.538C99.2734 139.343 99.4563 139.095 99.5853 138.813C99.7142 138.53 99.7862 138.22 99.796 137.903C99.8059 137.586 99.7534 137.27 99.6423 136.979L102.749 133.439L101.284 130.806L96.9594 135.873C96.5329 136.114 96.2003 136.521 96.0247 137.018C95.8491 137.514 95.8427 138.066 96.0067 138.567C96.1706 139.069 96.4936 139.485 96.9144 139.739C97.3351 139.992 97.8244 140.064 98.2896 139.941Z" fill="#FFB8B8"/>
<path d="M113.369 104.475C116.044 104.475 118.212 102.053 118.212 99.066C118.212 96.0785 116.044 93.6567 113.369 93.6567C110.694 93.6567 108.526 96.0785 108.526 99.066C108.526 102.053 110.694 104.475 113.369 104.475Z" fill="#FFB8B8"/>
<path d="M107.068 114.081L111.287 127.44L111.262 127.487C110.675 128.571 110.483 129.444 110.707 130.014C110.766 130.159 110.853 130.288 110.961 130.392C111.069 130.496 111.196 130.573 111.332 130.617L121.316 122.823L120.967 119.699L120.986 119.664C121.951 117.939 122.264 116.378 121.915 115.022C121.599 113.926 120.917 113.007 120.011 112.457L119.976 112.427L114.996 105.657L108.34 106.978L107.068 114.081Z" fill="#26AD71"/>
<path d="M100.652 137.53L97.8262 133.644L104.639 121.083L107.816 110.116C107.99 109.517 108.276 108.966 108.656 108.501C109.036 108.036 109.501 107.668 110.02 107.421C110.538 107.173 111.098 107.053 111.662 107.068C112.226 107.083 112.78 107.232 113.287 107.507C113.795 107.781 114.244 108.174 114.604 108.658C114.964 109.142 115.227 109.707 115.375 110.315C115.523 110.923 115.553 111.559 115.462 112.18C115.372 112.802 115.163 113.394 114.85 113.918L109.018 123.676L100.652 137.53Z" fill="#26AD71"/>
<path d="M120.247 97.9719H112.903L112.827 96.7942L112.451 97.9719H111.32L111.171 95.6377L110.424 97.9719H108.236V97.8563C108.237 96.2312 108.816 94.6732 109.845 93.5241C110.874 92.375 112.269 91.7286 113.724 91.7268H114.759C116.214 91.7286 117.609 92.375 118.638 93.5241C119.667 94.6732 120.246 96.2312 120.247 97.8563V97.9719Z" fill="#2F2E41"/>
<path d="M112.842 105.296C112.787 105.296 112.732 105.291 112.677 105.28L107.299 104.22V94.293H113.22L113.073 94.4838C111.034 97.1402 112.57 101.447 113.667 103.779C113.748 103.949 113.784 104.142 113.771 104.335C113.759 104.527 113.697 104.712 113.594 104.867C113.508 105 113.395 105.108 113.265 105.183C113.134 105.258 112.989 105.296 112.842 105.296Z" fill="#2F2E41"/>
<path d="M193.194 87.5112V101.497H137.721L129.711 112.231L130.626 101.497H126.729V87.5112H193.194Z" fill="#F0F0F0"/>
<path d="M149.791 97.0162C151.044 97.0162 152.06 95.8813 152.06 94.4815C152.06 93.0816 151.044 91.9468 149.791 91.9468C148.538 91.9468 147.521 93.0816 147.521 94.4815C147.521 95.8813 148.538 97.0162 149.791 97.0162Z" fill="white"/>
<path d="M142.132 97.0162C143.385 97.0162 144.401 95.8813 144.401 94.4815C144.401 93.0816 143.385 91.9468 142.132 91.9468C140.878 91.9468 139.862 93.0816 139.862 94.4815C139.862 95.8813 140.878 97.0162 142.132 97.0162Z" fill="white"/>
<path d="M134.472 97.0162C135.725 97.0162 136.742 95.8813 136.742 94.4815C136.742 93.0816 135.725 91.9468 134.472 91.9468C133.219 91.9468 132.203 93.0816 132.203 94.4815C132.203 95.8813 133.219 97.0162 134.472 97.0162Z" fill="white"/>
<path d="M258.716 139.789H0.28368C0.208444 139.789 0.136288 139.756 0.0830878 139.696C0.0298874 139.637 0 139.556 0 139.472C0 139.388 0.0298874 139.308 0.0830878 139.248C0.136288 139.189 0.208444 139.156 0.28368 139.156H258.716C258.792 139.156 258.864 139.189 258.917 139.248C258.97 139.308 259 139.388 259 139.472C259 139.556 258.97 139.637 258.917 139.696C258.864 139.756 258.792 139.789 258.716 139.789Z" fill="#CACACA"/>
</g>
<defs>
<clipPath id="clip0_169_694">
<rect width="259" height="140" fill="white"/>
</clipPath>
</defs>
</svg>
